<svg width="118" height="41" viewBox="0 0 118 41" fill="none" xmlns="http://www.w3.org/2000/svg">
<g clip-path="url(#clip0_18_902)">
<path d="M1.08594 23.557L8.82031 18.8367V21.3273L2.51953 25.1727L1.09062 26.0453L1.08594 26.0383V23.557ZM31.3078 23.557V26.0383L31.3031 26.0453L29.8742 25.1727L16.1969 16.825L11.1641 19.8969V17.4062L16.1969 14.3344L31.3078 23.557Z" fill="#ED4769"/>
<path d="M2.51953 25.1727L16.1969 16.825L29.8742 25.1727V39.4141H2.51953V25.1727Z" fill="#E4EEF9"/>
<path d="M9.67969 15.8984V13.4008V13.4016L24.7969 4.17578L39.9141 13.4016V13.4008V15.8844L39.9094 15.8914L38.4797 15.018L24.7969 6.66719L11.1141 15.018L9.68437 15.8914" fill="#ED4769"/>
<path d="M24.797 6.66797C24.4242 6.42716 23.991 6.29641 23.5473 6.29075C23.1035 6.28508 22.6672 6.40473 22.2884 6.63594L11.1165 13.4555L9.68682 14.3289L9.68213 14.3359V15.8984L9.68682 15.8914L11.1165 15.018L24.797 6.66797Z" fill="#EB304A"/>
<path d="M23.7664 4.80469L9.67969 13.4016V13.4008V13.6906L23.7664 4.80469Z" fill="#ED4769"/>
<path d="M39.9141 13.4016L24.7969 4.17578L23.7664 4.80078L38.2938 13.6719C38.55 13.8282 38.7617 14.0477 38.9087 14.3094C39.0556 14.5712 39.1328 14.8663 39.1328 15.1664V15.418L39.9094 15.8922L39.9141 15.8852V13.4008V13.4016ZM11.1641 17.4062V19.8969L8.82031 21.3273V18.8367L11.1641 17.4062Z" fill="#EB304A"/>
<path d="M36.1641 15.0164V39.4141H8.82031V21.3273L11.1641 19.8969V15.0164L23.6641 7.38437L36.1641 15.0164Z" fill="#D5E0F2"/>
<path d="M38.5078 15.0164V39.4141H11.1641V15.0164L23.6641 7.38438L24.8359 6.66875L38.5078 15.0164Z" fill="#E4EEF9"/>
<path d="M24.8359 6.66875L23.6641 7.38438L11.1641 15.0164V15.1477L21.3203 8.94688L22.4922 8.23125L35.3305 16.0695C35.5848 16.2249 35.7951 16.443 35.941 16.7029C36.087 16.9628 36.1638 17.2558 36.1641 17.5539V39.4141H38.5078V15.0164L24.8359 6.66875Z" fill="#D5E0F2"/>
<path d="M11.1641 39.4141H5.61719V26.9922C5.61719 26.8886 5.65834 26.7892 5.7316 26.716C5.80486 26.6427 5.90421 26.6016 6.00781 26.6016H10.7734C10.877 26.6016 10.9764 26.6427 11.0497 26.716C11.1229 26.7892 11.1641 26.8886 11.1641 26.9922V39.4141Z" fill="#F9B15E"/>
<path d="M10.7734 26.6016H8.42969C8.53329 26.6016 8.63264 26.6427 8.7059 26.716C8.77916 26.7892 8.82031 26.8886 8.82031 26.9922V39.4141H11.1641V26.9922C11.1641 26.8886 11.1229 26.7892 11.0497 26.716C10.9764 26.6427 10.877 26.6016 10.7734 26.6016Z" fill="#F9A242"/>
<path d="M21.4766 24.2578V31.6797H15.6172V24.2578C15.6172 24.1542 15.6583 24.0549 15.7316 23.9816C15.8049 23.9083 15.9042 23.8672 16.0078 23.8672H21.0859C21.1895 23.8672 21.2889 23.9083 21.3622 23.9816C21.4354 24.0549 21.4766 24.1542 21.4766 24.2578Z" fill="#52BBE9"/>
<path d="M19.1328 23.8672V31.6797C19.1328 31.8351 19.0711 31.9841 18.9612 32.094C18.8513 32.2039 18.7023 32.2656 18.5469 32.2656C18.3915 32.2656 18.2424 32.2039 18.1326 32.094C18.0227 31.9841 17.9609 31.8351 17.9609 31.6797V23.8672H19.1328Z" fill="white"/>
<path d="M34.0547 24.2578V31.6797H28.1953V24.2578C28.1953 24.1542 28.2365 24.0549 28.3097 23.9816C28.383 23.9083 28.4823 23.8672 28.5859 23.8672H33.6641C33.7677 23.8672 33.867 23.9083 33.9403 23.9816C34.0135 24.0549 34.0547 24.1542 34.0547 24.2578Z" fill="#52BBE9"/>
<path d="M30.5391 23.8672H31.7109V31.6797H30.5391V23.8672Z" fill="white"/>
<path d="M22.2578 31.6797H14.8359C14.6202 31.6797 14.4453 31.8546 14.4453 32.0703V33.2422C14.4453 33.4579 14.6202 33.6328 14.8359 33.6328H22.2578C22.4735 33.6328 22.6484 33.4579 22.6484 33.2422V32.0703C22.6484 31.8546 22.4735 31.6797 22.2578 31.6797Z" fill="#8B8893"/>
<path d="M22.2578 31.6797H19.9141C20.0177 31.6797 20.117 31.7208 20.1903 31.7941C20.2635 31.8674 20.3047 31.9667 20.3047 32.0703V33.2422C20.3047 33.3458 20.2635 33.4451 20.1903 33.5184C20.117 33.5917 20.0177 33.6328 19.9141 33.6328H22.2578C22.3614 33.6328 22.4608 33.5917 22.534 33.5184C22.6073 33.4451 22.6484 33.3458 22.6484 33.2422V32.0703C22.6484 31.9667 22.6073 31.8674 22.534 31.7941C22.4608 31.7208 22.3614 31.6797 22.2578 31.6797Z" fill="#787681"/>
<path d="M34.8359 31.6797H27.4141C27.1983 31.6797 27.0234 31.8546 27.0234 32.0703V33.2422C27.0234 33.4579 27.1983 33.6328 27.4141 33.6328H34.8359C35.0517 33.6328 35.2266 33.4579 35.2266 33.2422V32.0703C35.2266 31.8546 35.0517 31.6797 34.8359 31.6797Z" fill="#8B8893"/>
<path d="M34.8359 31.6797H32.4922C32.5958 31.6797 32.6951 31.7208 32.7684 31.7941C32.8417 31.8674 32.8828 31.9667 32.8828 32.0703V33.2422C32.8828 33.3458 32.8417 33.4451 32.7684 33.5184C32.6951 33.5917 32.5958 33.6328 32.4922 33.6328H34.8359C34.9395 33.6328 35.0389 33.5917 35.1122 33.5184C35.1854 33.4451 35.2266 33.3458 35.2266 33.2422V32.0703C35.2266 31.9667 35.1854 31.8674 35.1122 31.7941C35.0389 31.7208 34.9395 31.6797 34.8359 31.6797Z" fill="#787681"/>
<path d="M34.0547 15.5469H15.6172C15.4618 15.5469 15.3128 15.4851 15.2029 15.3753C15.093 15.2654 15.0312 15.1163 15.0312 14.9609C15.0312 14.8055 15.093 14.6565 15.2029 14.5466C15.3128 14.4367 15.4618 14.375 15.6172 14.375H34.0547C34.2101 14.375 34.3591 14.4367 34.469 14.5466C34.5789 14.6565 34.6406 14.8055 34.6406 14.9609C34.6406 15.1163 34.5789 15.2654 34.469 15.3753C34.3591 15.4851 34.2101 15.5469 34.0547 15.5469Z" fill="#8B8893"/>
<path d="M32.7492 20.2344C32.5938 20.2344 32.4447 20.1726 32.3348 20.0628C32.225 19.9529 32.1632 19.8038 32.1632 19.6484V14.9609C32.1632 14.8055 32.225 14.6565 32.3348 14.5466C32.4447 14.4367 32.5938 14.375 32.7492 14.375C32.9046 14.375 33.0536 14.4367 33.1635 14.5466C33.2734 14.6565 33.3351 14.8055 33.3351 14.9609V19.6484C33.3351 19.8038 33.2734 19.9529 33.1635 20.0628C33.0536 20.1726 32.9046 20.2344 32.7492 20.2344ZM29.5992 20.2344C29.4438 20.2344 29.2947 20.1726 29.1848 20.0628C29.075 19.9529 29.0132 19.8038 29.0132 19.6484V14.9609C29.0132 14.8055 29.075 14.6565 29.1848 14.5466C29.2947 14.4367 29.4438 14.375 29.5992 14.375C29.7546 14.375 29.9036 14.4367 30.0135 14.5466C30.1234 14.6565 30.1851 14.8055 30.1851 14.9609V19.6484C30.1851 19.8038 30.1234 19.9529 30.0135 20.0628C29.9036 20.1726 29.7546 20.2344 29.5992 20.2344ZM26.45 20.2344C26.2946 20.2344 26.1455 20.1726 26.0356 20.0628C25.9257 19.9529 25.864 19.8038 25.864 19.6484V14.9609C25.864 14.8055 25.9257 14.6565 26.0356 14.5466C26.1455 14.4367 26.2946 14.375 26.45 14.375C26.6054 14.375 26.7544 14.4367 26.8643 14.5466C26.9742 14.6565 27.0359 14.8055 27.0359 14.9609V19.6484C27.0359 19.8038 26.9742 19.9529 26.8643 20.0628C26.7544 20.1726 26.6054 20.2344 26.45 20.2344ZM23.3 20.2344C23.1445 20.2344 22.9955 20.1726 22.8856 20.0628C22.7757 19.9529 22.714 19.8038 22.714 19.6484V14.9609C22.714 14.8055 22.7757 14.6565 22.8856 14.5466C22.9955 14.4367 23.1445 14.375 23.3 14.375C23.4554 14.375 23.6044 14.4367 23.7143 14.5466C23.8242 14.6565 23.8859 14.8055 23.8859 14.9609V19.6484C23.8859 19.8038 23.8242 19.9529 23.7143 20.0628C23.6044 20.1726 23.4554 20.2344 23.3 20.2344ZM20.1507 20.2344C19.9953 20.2344 19.8463 20.1726 19.7364 20.0628C19.6265 19.9529 19.5648 19.8038 19.5648 19.6484V14.9609C19.5648 14.8055 19.6265 14.6565 19.7364 14.5466C19.8463 14.4367 19.9953 14.375 20.1507 14.375C20.3061 14.375 20.4552 14.4367 20.5651 14.5466C20.6749 14.6565 20.7367 14.8055 20.7367 14.9609V19.6484C20.7367 19.8038 20.6749 19.9529 20.5651 20.0628C20.4552 20.1726 20.3061 20.2344 20.1507 20.2344ZM17.0007 20.2344C16.8453 20.2344 16.6963 20.1726 16.5864 20.0628C16.4765 19.9529 16.4148 19.8038 16.4148 19.6484V14.9609C16.4148 14.8055 16.4765 14.6565 16.5864 14.5466C16.6963 14.4367 16.8453 14.375 17.0007 14.375C17.1561 14.375 17.3052 14.4367 17.4151 14.5466C17.5249 14.6565 17.5867 14.8055 17.5867 14.9609V19.6484C17.5867 19.8038 17.5249 19.9529 17.4151 20.0628C17.3052 20.1726 17.1561 20.2344 17.0007 20.2344Z" fill="#8B8893"/>
<path d="M33.6641 19.6484H16.0078C15.7921 19.6484 15.6172 19.8233 15.6172 20.0391V21.2109C15.6172 21.4267 15.7921 21.6016 16.0078 21.6016H33.6641C33.8798 21.6016 34.0547 21.4267 34.0547 21.2109V20.0391C34.0547 19.8233 33.8798 19.6484 33.6641 19.6484Z" fill="#ED4769"/>
<path d="M33.6641 19.6484H31.3203C31.4239 19.6484 31.5233 19.6896 31.5965 19.7628C31.6698 19.8361 31.7109 19.9355 31.7109 20.0391V21.2109C31.7109 21.3145 31.6698 21.4139 31.5965 21.4872C31.5233 21.5604 31.4239 21.6016 31.3203 21.6016H33.6641C33.7677 21.6016 33.867 21.5604 33.9403 21.4872C34.0135 21.4139 34.0547 21.3145 34.0547 21.2109V20.0391C34.0547 19.9355 34.0135 19.8361 33.9403 19.7628C33.867 19.6896 33.7677 19.6484 33.6641 19.6484Z" fill="#EB304A"/>
<path d="M39.9141 40H1.08594C0.930537 40 0.781502 39.9383 0.671617 39.8284C0.561733 39.7185 0.5 39.5695 0.5 39.4141C0.5 39.2587 0.561733 39.1096 0.671617 38.9997C0.781502 38.8899 0.930537 38.8281 1.08594 38.8281H39.9141C40.0695 38.8281 40.2185 38.8899 40.3284 38.9997C40.4383 39.1096 40.5 39.2587 40.5 39.4141C40.5 39.5695 40.4383 39.7185 40.3284 39.8284C40.2185 39.9383 40.0695 40 39.9141 40Z" fill="#787681"/>
<path d="M39.6039 16.3914C39.7355 16.472 39.8936 16.4974 40.0438 16.4622C40.194 16.4269 40.3242 16.3338 40.4062 16.2031L40.4109 16.1953C40.4693 16.1015 40.5002 15.9933 40.5 15.8828V13.4008C40.5001 13.2949 40.4714 13.1911 40.4171 13.1003C40.3627 13.0095 40.2847 12.9351 40.1914 12.8852L25.1023 3.67578C25.0104 3.61942 24.9047 3.58959 24.7969 3.58959C24.6891 3.58959 24.5833 3.61942 24.4914 3.67578L9.41328 12.8805C9.31859 12.9303 9.2394 13.0052 9.1843 13.0969C9.1292 13.1887 9.10031 13.2938 9.10078 13.4008V15.9008C9.10078 16.0562 9.16251 16.2052 9.2724 16.3151C9.38228 16.425 9.53132 16.4867 9.68672 16.4867C9.81599 16.487 9.94166 16.4441 10.0438 16.3648L10.5852 16.0344V17.0797L0.816406 23.0352C0.721833 23.0852 0.642728 23.1601 0.587649 23.2518C0.532569 23.3435 0.503611 23.4485 0.503906 23.5555V26.0383C0.504076 26.1456 0.533811 26.2507 0.589844 26.3422L0.594531 26.3508C0.595545 26.353 0.596859 26.3551 0.598438 26.357L0.619531 26.3867C0.705834 26.5068 0.834429 26.5896 0.979401 26.6186C1.12437 26.6476 1.27495 26.6206 1.40078 26.543L1.93828 26.2148V38.8281H1.08594C0.930537 38.8281 0.781502 38.8899 0.671617 38.9997C0.561733 39.1096 0.5 39.2587 0.5 39.4141C0.5 39.5695 0.561733 39.7185 0.671617 39.8284C0.781502 39.9383 0.930537 40 1.08594 40H39.9141C40.0695 40 40.2185 39.9383 40.3284 39.8284C40.4383 39.7185 40.5 39.5695 40.5 39.4141C40.5 39.2587 40.4383 39.1096 40.3284 38.9997C40.2185 38.8899 40.0695 38.8281 39.9141 38.8281H39.0938V16.0797L39.6039 16.3914ZM10.5781 38.8281H6.20312V27.1875H10.5781V38.8281ZM10.5781 26.0156H5.61719C5.46179 26.0156 5.31275 26.0774 5.20287 26.1872C5.09298 26.2971 5.03125 26.4462 5.03125 26.6016V38.8281H3.10547V25.5016L10.5781 20.9375V26.0156ZM10.5781 19.568L2.21406 24.6727L1.67188 25.0039V23.8859L10.5781 18.45V19.568ZM37.9219 38.8281H11.75V20.0305C11.7746 19.9352 11.7746 19.8352 11.75 19.7398V15.3164L24.7969 7.35391L37.9219 15.3641V38.8281ZM38.9227 14.6023C38.8571 14.5362 38.7768 14.4867 38.6883 14.4578L25.1023 6.16719C25.0102 6.1115 24.9046 6.08206 24.7969 6.08206C24.6892 6.08206 24.5836 6.1115 24.4914 6.16719L10.8125 14.518L10.2656 14.85V13.7305L24.7969 4.86172L39.3281 13.7305V14.85L38.9227 14.6023ZM15.0312 14.9609C15.0312 15.1163 15.093 15.2654 15.2029 15.3753C15.3128 15.4851 15.4618 15.5469 15.6172 15.5469H16.4148V19.0625H15.6172C15.4618 19.0625 15.3128 19.1242 15.2029 19.2341C15.093 19.344 15.0312 19.493 15.0312 19.6484V21.6016C15.0312 21.757 15.093 21.906 15.2029 22.0159C15.3128 22.1258 15.4618 22.1875 15.6172 22.1875H34.0547C34.2101 22.1875 34.3591 22.1258 34.469 22.0159C34.5789 21.906 34.6406 21.757 34.6406 21.6016V19.6484C34.6406 19.493 34.5789 19.344 34.469 19.2341C34.3591 19.1242 34.2101 19.0625 34.0547 19.0625H33.3352V15.5469H34.0547C34.2101 15.5469 34.3591 15.4851 34.469 15.3753C34.5789 15.2654 34.6406 15.1163 34.6406 14.9609C34.6406 14.8055 34.5789 14.6565 34.469 14.5466C34.3591 14.4367 34.2101 14.375 34.0547 14.375H15.6172C15.4618 14.375 15.3128 14.4367 15.2029 14.5466C15.093 14.6565 15.0312 14.8055 15.0312 14.9609ZM33.4688 20.2344V21.0156H16.2031V20.2344H33.4688ZM30.1875 15.5469H32.1656V19.0625H30.1875V15.5469ZM27.0383 15.5469H29.0156V19.0625H27.0359L27.0383 15.5469ZM23.8883 15.5469H25.8664V19.0625H23.8859L23.8883 15.5469ZM20.7344 15.5469H22.7117V19.0625H20.7344V15.5469ZM17.5844 15.5469H19.5625V19.0625H17.5867L17.5844 15.5469ZM22.6484 31.0937H22.0625V23.8672C22.0625 23.7118 22.0008 23.5628 21.8909 23.4529C21.781 23.343 21.632 23.2812 21.4766 23.2812H15.6172C15.4618 23.2812 15.3128 23.343 15.2029 23.4529C15.093 23.5628 15.0312 23.7118 15.0312 23.8672V31.0937H14.4453C14.2899 31.0937 14.1409 31.1555 14.031 31.2654C13.9211 31.3753 13.8594 31.5243 13.8594 31.6797V33.6328C13.8594 33.7882 13.9211 33.9373 14.031 34.0471C14.1409 34.157 14.2899 34.2187 14.4453 34.2187H22.6484C22.8038 34.2187 22.9529 34.157 23.0628 34.0471C23.1726 33.9373 23.2344 33.7882 23.2344 33.6328V31.6797C23.2344 31.5243 23.1726 31.3753 23.0628 31.2654C22.9529 31.1555 22.8038 31.0937 22.6484 31.0937ZM19.1328 24.4531H20.8906V31.0937H19.1328V24.4531ZM16.2031 24.4531H17.9609V31.0937H16.2031V24.4531ZM22.0625 33.0469H15.0312V32.2656H22.0625V33.0469ZM34.6406 23.8672C34.6406 23.7118 34.5789 23.5628 34.469 23.4529C34.3591 23.343 34.2101 23.2812 34.0547 23.2812H28.1953C28.0399 23.2812 27.8909 23.343 27.781 23.4529C27.6711 23.5628 27.6094 23.7118 27.6094 23.8672V31.0937H27.0234C26.868 31.0937 26.719 31.1555 26.6091 31.2654C26.4992 31.3753 26.4375 31.5243 26.4375 31.6797V33.6328C26.4375 33.7882 26.4992 33.9373 26.6091 34.0471C26.719 34.157 26.868 34.2187 27.0234 34.2187H35.2266C35.382 34.2187 35.531 34.157 35.6409 34.0471C35.7508 33.9373 35.8125 33.7882 35.8125 33.6328V31.6797C35.8125 31.5243 35.7508 31.3753 35.6409 31.2654C35.531 31.1555 35.382 31.0937 35.2266 31.0937H34.6406V23.8672ZM31.7109 24.4531H33.4688V31.0937H31.7109V24.4531ZM28.7812 24.4531H30.5391V31.0937H28.7812V24.4531ZM34.6406 33.0469H27.6094V32.2656H34.6406V33.0469Z" fill="#18171C"/>
</g>
<path d="M52.6136 40V22.5455H54.7273V30.3182H64.0341V22.5455H66.1477V40H64.0341V32.1932H54.7273V40H52.6136ZM75.4247 40.2727C74.2429 40.2727 73.206 39.9915 72.3139 39.429C71.4276 38.8665 70.7344 38.0795 70.2344 37.0682C69.7401 36.0568 69.4929 34.875 69.4929 33.5227C69.4929 32.1591 69.7401 30.9687 70.2344 29.9517C70.7344 28.9347 71.4276 28.1449 72.3139 27.5824C73.206 27.0199 74.2429 26.7386 75.4247 26.7386C76.6065 26.7386 77.6406 27.0199 78.527 27.5824C79.419 28.1449 80.1122 28.9347 80.6065 29.9517C81.1065 30.9687 81.3565 32.1591 81.3565 33.5227C81.3565 34.875 81.1065 36.0568 80.6065 37.0682C80.1122 38.0795 79.419 38.8665 78.527 39.429C77.6406 39.9915 76.6065 40.2727 75.4247 40.2727ZM75.4247 38.4659C76.3224 38.4659 77.0611 38.2358 77.6406 37.7756C78.2202 37.3153 78.6491 36.7102 78.9276 35.9602C79.206 35.2102 79.3452 34.3977 79.3452 33.5227C79.3452 32.6477 79.206 31.8324 78.9276 31.0767C78.6491 30.321 78.2202 29.7102 77.6406 29.2443C77.0611 28.7784 76.3224 28.5455 75.4247 28.5455C74.527 28.5455 73.7884 28.7784 73.2088 29.2443C72.6293 29.7102 72.2003 30.321 71.9219 31.0767C71.6435 31.8324 71.5043 32.6477 71.5043 33.5227C71.5043 34.3977 71.6435 35.2102 71.9219 35.9602C72.2003 36.7102 72.6293 37.3153 73.2088 37.7756C73.7884 38.2358 74.527 38.4659 75.4247 38.4659ZM84.4268 40V26.9091H86.37V28.9545H86.5405C86.8132 28.2557 87.2536 27.7131 87.8615 27.3267C88.4695 26.9347 89.1996 26.7386 90.0518 26.7386C90.9155 26.7386 91.6342 26.9347 92.2081 27.3267C92.7876 27.7131 93.2393 28.2557 93.5632 28.9545H93.6996C94.0348 28.2784 94.5376 27.7415 95.2081 27.3438C95.8786 26.9403 96.6825 26.7386 97.62 26.7386C98.7905 26.7386 99.7479 27.1051 100.492 27.8381C101.237 28.5653 101.609 29.6989 101.609 31.2386V40H99.5973V31.2386C99.5973 30.2727 99.3331 29.5824 98.8047 29.1676C98.2763 28.7528 97.6541 28.5455 96.9382 28.5455C96.0178 28.5455 95.3047 28.8239 94.799 29.3807C94.2933 29.9318 94.0405 30.6307 94.0405 31.4773V40H91.995V31.0341C91.995 30.2898 91.7536 29.6903 91.2706 29.2358C90.7876 28.7756 90.1655 28.5455 89.4041 28.5455C88.8814 28.5455 88.3928 28.6847 87.9382 28.9631C87.4893 29.2415 87.1257 29.6278 86.8473 30.1222C86.5746 30.6108 86.4382 31.1761 86.4382 31.8182V40H84.4268ZM110.775 40.2727C109.513 40.2727 108.425 39.9943 107.511 39.4375C106.602 38.875 105.9 38.0909 105.406 37.0852C104.917 36.0739 104.673 34.8977 104.673 33.5568C104.673 32.2159 104.917 31.0341 105.406 30.0114C105.9 28.983 106.587 28.1818 107.468 27.608C108.354 27.0284 109.388 26.7386 110.57 26.7386C111.252 26.7386 111.925 26.8523 112.59 27.0795C113.255 27.3068 113.86 27.6761 114.406 28.1875C114.951 28.6932 115.386 29.3636 115.71 30.1989C116.033 31.0341 116.195 32.0625 116.195 33.2841V34.1364H106.104V32.3977H114.15C114.15 31.6591 114.002 31 113.707 30.4205C113.417 29.8409 113.002 29.3835 112.462 29.0483C111.928 28.7131 111.298 28.5455 110.57 28.5455C109.769 28.5455 109.076 28.7443 108.491 29.142C107.911 29.5341 107.465 30.0455 107.153 30.6761C106.84 31.3068 106.684 31.983 106.684 32.7045V33.8636C106.684 34.8523 106.854 35.6903 107.195 36.3778C107.542 37.0597 108.022 37.5795 108.636 37.9375C109.249 38.2898 109.962 38.4659 110.775 38.4659C111.303 38.4659 111.781 38.392 112.207 38.2443C112.638 38.0909 113.011 37.8636 113.323 37.5625C113.636 37.2557 113.877 36.875 114.048 36.4205L115.991 36.9659C115.786 37.625 115.442 38.2045 114.96 38.7045C114.477 39.1989 113.88 39.5852 113.17 39.8636C112.46 40.1364 111.661 40.2727 110.775 40.2727Z" fill="#0B468C"/>
<defs>
<clipPath id="clip0_18_902">
<rect width="40" height="40" fill="white" transform="translate(0.5)"/>
</clipPath>
</defs>
</svg>
